<svg width="250" height="160" viewBox="0 0 250 160" fill="none" xmlns="http://www.w3.org/2000/svg">
<path fill-rule="evenodd" clip-rule="evenodd" d="M13.475 123.874C13.0808 99.826 13.5933 47.574 18.7969 30.9519C18.994 29.028 17.8508 25.2957 11.7011 25.7574C4.01406 26.3346 2.83144 29.2204 2.24012 36.7234C1.64881 44.2265 -2.49038 122.72 2.24012 140.612C2.43723 141.766 3.77754 143.959 7.56193 143.498C12.2924 142.921 13.4751 142.343 14.6577 136.572C14.783 135.96 15.0213 134.447 15.3726 132.217C18.3349 113.406 29.3316 43.5801 48.3625 33.2605C51.1219 32.1061 55.813 38.224 52.5017 71.9301C48.3625 114.063 48.3625 122.72 55.4582 123.874C60.2021 124.646 60.7173 122.838 64.4248 109.827C66.263 103.377 68.8858 94.173 73.1976 81.1646C86.2065 41.9178 99.2153 13.6371 106.902 11.9056C113.178 10.4921 111.966 23.6945 109.701 48.3727C109.191 53.9248 108.628 60.0577 108.085 66.7356C107.946 68.4482 107.804 70.171 107.662 71.8995C104.782 106.868 101.713 144.129 116.363 145.229C129.496 146.215 134 134.146 144.985 104.704C146.86 99.679 148.923 94.1484 151.251 88.0905C151.645 103.289 153.025 134.494 155.39 137.726C157.755 140.958 162.289 139.842 164.26 138.88C164.851 138.688 166.034 136.687 166.034 130.223C166.034 122.143 176.802 4.83511 203.286 6.13401C214.583 7.13809 224.813 27.2616 184.459 72.8884C184.027 73.3769 183.773 74.0169 183.773 74.6622C183.773 75.686 184.65 76.4967 185.699 76.4857C197.442 76.363 215.197 80.6611 217.184 97.325C202.302 107.521 173.957 132.07 179.634 148.692C185.31 165.314 198.556 161.967 210.973 149.269C223.391 136.572 229.429 121.421 227.622 94.4392L248.64 81.4295C249.368 80.9788 249.547 79.9977 249.025 79.3187V79.3187C248.572 78.7287 247.745 78.579 247.113 78.9727L226.939 91.5534C224.574 84.6275 219.252 72.6226 190.869 73.0844C201.709 66.7356 223.391 48.8437 223.391 28.066C223.391 2.0939 206.368 0.217724 206.368 0.217724C206.368 0.217724 170.173 -10.0264 164.26 110.022C162.683 94.824 160.948 59.1171 166.625 37.8777C167.216 34.6072 167.335 28.066 163.077 28.066C162.602 28.066 162.127 28.0154 161.655 27.9652C156.838 27.4523 152.328 26.972 151.251 80.5874C144.943 98.2869 131.146 134.956 126.416 140.035C121.685 145.114 120.108 137.918 119.911 133.686C123.065 102.712 128.071 36.4925 122.868 19.4087C117.664 2.32478 107.297 7.28835 102.763 11.9056C95.2733 20.7554 76.8637 51.9604 63.1453 105.982C65.3134 86.1666 67.6393 44.4573 59.5974 36.1462C51.5556 27.8352 45.2088 30.7594 43.0407 33.2605C38.1131 36.1463 25.3013 58.3092 13.475 123.874ZM215.829 112.187C209.791 140.035 196.191 159.081 187.321 155.041C178.451 151.001 179.408 125.029 217.365 100.788C217.333 103.873 216.939 108.333 215.829 112.187Z" fill="#7C3AED"/>
</svg>
